{
  "asset": {
    "version": "2.0",
    "generator": "Victor Visual Engine - Procedural Model Generator"
  },
  "scene": 0,
  "scenes": [
    {
      "nodes": [
        0
      ]
    }
  ],
  "nodes": [
    {
      "mesh": 0,
      "name": "VictorHead"
    }
  ],
  "meshes": [
    {
      "primitives": [
        {
          "attributes": {
            "POSITION": 0,
            "NORMAL": 1,
            "TEXCOORD_0": 2
          },
          "indices": 3,
          "material": 0
        }
      ],
      "name": "VictorHelmet"
    }
  ],
  "materials": [
    {
      "name": "VictorMaterial",
      "pbrMetallicRoughness": {
        "baseColorFactor": [
          0.15,
          0.15,
          0.2,
          1.0
        ],
        "metallicFactor": 0.9,
        "roughnessFactor": 0.3
      },
      "emissiveFactor": [
        0.0,
        0.8,
        0.8
      ]
    }
  ],
  "accessors": [
    {
      "bufferView": 0,
      "componentType": 5126,
      "count": 82,
      "type": "VEC3",
      "max": [
        0.4,
        0.5,
        0.4
      ],
      "min": [
        -0.4,
        -0.5,
        -0.4
      ]
    },
    {
      "bufferView": 1,
      "componentType": 5126,
      "count": 82,
      "type": "VEC3"
    },
    {
      "bufferView": 2,
      "componentType": 5126,
      "count": 82,
      "type": "VEC2"
    },
    {
      "bufferView": 3,
      "componentType": 5123,
      "count": 432,
      "type": "SCALAR"
    }
  ],
  "bufferViews": [
    {
      "buffer": 0,
      "byteOffset": 0,
      "byteLength": 984,
      "target": 34962
    },
    {
      "buffer": 0,
      "byteOffset": 984,
      "byteLength": 984,
      "target": 34962
    },
    {
      "buffer": 0,
      "byteOffset": 1968,
      "byteLength": 656,
      "target": 34962
    },
    {
      "buffer": 0,
      "byteOffset": 2624,
      "byteLength": 864,
      "target": 34963
    }
  ],
  "buffers": [
    {
      "byteLength": 3488
    }
  ]
}